<svg width="128" height="47" viewBox="0 0 128 47" fill="none" xmlns="http://www.w3.org/2000/svg">
<g clip-path="url(#clip0_26_479)">
<path d="M5.15325 8.70824C-2.99648 18.8781 -1.30183 33.7387 8.9354 41.8347C18.1481 49.1273 31.0968 48.6146 39.6625 40.84L40.8102 39.6539L41.0028 26.9359L40.7255 7.78232C40.7255 7.78232 39.3467 6.13709 38.1373 5.18821C27.8539 -2.84663 13.3107 -1.45392 5.15325 8.70824ZM38.1373 31.1675L38.1835 34.4733C33.7312 27.5021 33.5232 18.4036 37.8523 11.7232L38.1373 31.1599V31.1675ZM37.2284 7.7058C36.9819 8.00423 36.7585 8.27971 36.6506 8.4098C31.6976 14.5928 30.5961 23.1021 33.1381 30.6242C30.0338 35.1084 22.1306 32.1241 22.0458 32.0935L21.5143 33.4479L20.9751 34.8023C21.3526 34.9477 29.5947 38.1005 34.3783 33.6316C35.2564 35.4298 36.3579 37.1363 37.6828 38.6973C30.1724 45.5078 18.826 45.944 10.7533 39.5544C1.78706 32.4608 0.300386 19.4367 7.44873 10.5218C14.5894 1.60697 27.6998 0.130089 36.6737 7.23136C36.8663 7.3844 37.0435 7.5451 37.2284 7.7058Z" fill="#6E6BFB"/>
<path d="M17.797 27.7898C18.8067 26.5301 18.5973 24.6959 17.3293 23.6929C16.0614 22.6898 14.215 22.8979 13.2053 24.1575C12.1956 25.4171 12.405 27.2513 13.673 28.2544C14.941 29.2574 16.7874 29.0494 17.797 27.7898Z" fill="#6E6BFB"/>
<path d="M26.4442 16.9938C27.4538 15.7342 27.2444 13.8999 25.9765 12.8969C24.7085 11.8939 22.8621 12.1019 21.8524 13.3615C20.8428 14.6211 21.0522 16.4554 22.3201 17.4584C23.5881 18.4614 25.4345 18.2534 26.4442 16.9938Z" fill="#6E6BFB"/>
<path d="M58.6777 19.3601C59.525 18.8092 60.1952 18.0593 60.6882 17.1027C61.1812 16.1462 61.4277 15.0596 61.4277 13.8352C61.4277 12.6109 61.1812 11.5013 60.6882 10.5601C60.1952 9.6112 59.525 8.86893 58.6777 8.32563C57.8304 7.78232 56.8598 7.51449 55.766 7.51449C55.0804 7.51449 54.418 7.64458 53.7863 7.9124C53.1547 8.17258 52.6232 8.52458 52.1841 8.94546C52.0609 9.06789 51.953 9.19033 51.8606 9.31276L51.8375 7.72875H49.0028V25.0993H51.9068V18.5184C51.9607 18.572 51.9993 18.6332 52.0609 18.6867C52.5231 19.1382 53.0854 19.4979 53.7478 19.781C54.4103 20.0565 55.1035 20.2019 55.8199 20.2019C56.8829 20.2019 57.8381 19.9264 58.6854 19.3754L58.6777 19.3601ZM53.432 17.164C52.9236 16.8349 52.5231 16.3911 52.2303 15.8172C51.9299 15.2432 51.7836 14.5851 51.7836 13.8429C51.7836 13.1006 51.9299 12.4425 52.2303 11.8686C52.5231 11.2947 52.9313 10.8509 53.432 10.5295C53.9404 10.2081 54.5335 10.055 55.2191 10.055C55.9047 10.055 56.4824 10.2157 56.9985 10.5448C57.5146 10.8738 57.9074 11.3176 58.1924 11.8839C58.4697 12.4502 58.6161 13.1083 58.6161 13.8505C58.6161 14.5928 58.4697 15.2509 58.1847 15.8248C57.8997 16.3987 57.4915 16.8502 56.9831 17.1716C56.467 17.5007 55.8815 17.6613 55.2268 17.6613C54.572 17.6613 53.9404 17.5007 53.4397 17.1716L53.432 17.164Z" fill="#6E6BFB"/>
<path d="M65.0327 19.3831C66.0032 19.9341 67.097 20.2095 68.3295 20.2095C69.562 20.2095 70.6404 19.9341 71.6033 19.3831C72.5738 18.8321 73.3287 18.0746 73.8834 17.118C74.438 16.1615 74.7153 15.0672 74.7153 13.8429C74.7153 12.6185 74.438 11.5243 73.8834 10.5677C73.3287 9.60355 72.5661 8.85363 71.6033 8.30267C70.6327 7.75171 69.5466 7.47623 68.3295 7.47623C67.1125 7.47623 65.9955 7.75171 65.0327 8.30267C64.0621 8.85363 63.2995 9.6112 62.7372 10.5677C62.1749 11.5319 61.8976 12.6185 61.8976 13.8429C61.8976 15.0672 62.1749 16.1615 62.7372 17.118C63.2995 18.0746 64.0621 18.8321 65.0327 19.3831ZM65.2637 11.8763C65.5565 11.2947 65.9801 10.8356 66.5193 10.5065C67.0585 10.1698 67.6594 10.0091 68.3372 10.0091C69.0151 10.0091 69.6082 10.1775 70.1243 10.5065C70.6481 10.8432 71.0641 11.2947 71.3645 11.8686C71.6649 12.4425 71.8113 13.1006 71.7958 13.8429C71.8113 14.5698 71.6649 15.2203 71.3645 15.7942C71.0564 16.3681 70.6481 16.8273 70.1243 17.164C69.6005 17.5083 69.0074 17.6767 68.3372 17.6767C67.6671 17.6767 67.0585 17.5083 66.5193 17.164C65.9801 16.8273 65.5642 16.3681 65.2637 15.7942C64.9633 15.2203 64.817 14.5698 64.817 13.8429C64.817 13.1159 64.9633 12.4578 65.2637 11.8763Z" fill="#6E6BFB"/>
<path d="M81.5788 17.6078C81.4247 17.7302 81.2398 17.822 81.0319 17.8833C80.8239 17.9445 80.5851 17.9751 80.3155 17.9751C79.6761 17.9751 79.0676 17.8603 78.4899 17.6231C77.9122 17.3859 77.3884 17.0109 76.9185 16.4829L75.0467 18.0899C75.5936 18.7709 76.3022 19.2989 77.165 19.6586C78.0277 20.0259 79.0137 20.2019 80.0998 20.2019C80.9856 20.2019 81.7868 20.0412 82.4954 19.7121C83.2041 19.3831 83.7664 18.9393 84.1824 18.3653C84.5983 17.7914 84.7986 17.141 84.7986 16.414C84.7986 15.9625 84.737 15.557 84.6137 15.182C84.4905 14.8071 84.2748 14.4857 83.9821 14.2025C83.6817 13.8735 83.2811 13.5904 82.765 13.3455C82.2489 13.1006 81.6096 12.871 80.847 12.6721C80.3001 12.5497 79.8533 12.4196 79.5144 12.2742C79.1754 12.1288 78.9135 12.014 78.7441 11.8992C78.59 11.7921 78.4668 11.6543 78.382 11.4936C78.2973 11.3329 78.2434 11.1569 78.228 10.9733C78.228 10.759 78.2742 10.5677 78.3589 10.407C78.4437 10.2463 78.5669 10.1086 78.721 10.0015C78.875 9.89433 79.0753 9.81016 79.3064 9.75659C79.5375 9.70302 79.8071 9.67242 80.0998 9.67242C80.4156 9.67242 80.7469 9.74128 81.1089 9.87137C81.4709 10.0015 81.8253 10.1775 82.1719 10.3917C82.5262 10.606 82.8498 10.8585 83.1425 11.134L84.737 9.38928C84.3749 8.98371 83.9436 8.63936 83.4352 8.35623C82.9268 8.0731 82.3799 7.85118 81.7945 7.69049C81.209 7.53744 80.6082 7.46092 79.9843 7.46092C79.3603 7.46092 78.7903 7.54509 78.228 7.71344C77.6657 7.88179 77.1727 8.13432 76.7567 8.45571C76.3408 8.7771 76.0018 9.16737 75.763 9.60355C75.5242 10.0474 75.401 10.5371 75.401 11.0804C75.401 11.5166 75.4703 11.9145 75.6013 12.2895C75.7322 12.6644 75.9325 12.9935 76.1944 13.2919C76.5102 13.6516 76.9416 13.973 77.5039 14.2561C78.0662 14.5392 78.7672 14.7918 79.6068 15.0137C80.1383 15.1361 80.5697 15.2585 80.9086 15.3886C81.2475 15.5111 81.4863 15.6259 81.6481 15.7406C81.9254 15.9549 82.0718 16.2533 82.0718 16.6206C82.0718 16.8196 82.0255 17.0033 81.9408 17.1639C81.8561 17.3246 81.7328 17.47 81.5788 17.5925V17.6078Z" fill="#6E6BFB"/>
<path d="M89.2353 7.72875H86.3544V19.98H89.2353V7.72875Z" fill="#6E6BFB"/>
<path d="M87.7564 5.11934C88.3341 5.11934 88.7886 4.96629 89.1121 4.65255C89.4433 4.33881 89.6051 3.94855 89.6051 3.46646C89.6051 2.92315 89.4433 2.50993 89.1275 2.21914C88.804 1.93601 88.3495 1.79062 87.7564 1.79062C87.1941 1.79062 86.7473 1.94366 86.4238 2.25741C86.0925 2.57115 85.9308 2.96906 85.9308 3.46646C85.9308 3.99446 86.0925 4.40003 86.4084 4.69081C86.7242 4.9816 87.1786 5.11934 87.7564 5.11934Z" fill="#6E6BFB"/>
<path d="M95.7904 4.61429H92.9095V7.72875H90.4753V10.3764H92.9095V19.98H95.7904V10.3764H98.4787V7.72875H95.7904V4.61429Z" fill="#6E6BFB"/>
<path d="M101.098 1.79827C100.536 1.79827 100.089 1.95132 99.7655 2.26506C99.4342 2.5788 99.2725 2.97671 99.2725 3.47411C99.2725 4.00211 99.4342 4.40768 99.7501 4.69847C100.066 4.98925 100.52 5.12699 101.098 5.12699C101.676 5.12699 102.13 4.97395 102.454 4.66021C102.785 4.34646 102.947 3.9562 102.947 3.47411C102.947 2.9308 102.785 2.51758 102.469 2.2268C102.146 1.94366 101.691 1.79827 101.098 1.79827Z" fill="#6E6BFB"/>
<path d="M102.577 7.72875H99.6958V19.98H102.577V7.72875Z" fill="#6E6BFB"/>
<path d="M113.415 7.72875L110.056 16.1921L106.813 7.72875H103.678L108.87 19.98H111.027L116.481 7.72875H113.415Z" fill="#6E6BFB"/>
<path d="M128.089 13.4909C128.104 12.6262 127.973 11.8227 127.704 11.0881C127.426 10.3535 127.034 9.71833 126.525 9.18267C126.009 8.64702 125.401 8.22614 124.7 7.9124C123.999 7.59866 123.244 7.44562 122.427 7.44562C121.503 7.44562 120.663 7.60631 119.885 7.92005C119.115 8.24145 118.452 8.68528 117.898 9.26685C117.343 9.84842 116.912 10.5371 116.596 11.3253C116.28 12.1135 116.126 12.9935 116.126 13.95C116.126 15.1591 116.403 16.2304 116.958 17.1716C117.513 18.1128 118.283 18.8474 119.277 19.3907C120.27 19.9341 121.41 20.2019 122.704 20.2019C123.282 20.2019 123.868 20.1254 124.461 19.9723C125.054 19.8193 125.616 19.605 126.155 19.3295C126.695 19.0617 127.172 18.7327 127.596 18.3424L126.171 16.3681C125.608 16.8502 125.085 17.1793 124.599 17.3706C124.114 17.5542 123.583 17.646 123.005 17.646C122.181 17.646 121.457 17.4853 120.84 17.1716C120.224 16.8579 119.747 16.3987 119.415 15.8095C119.192 15.4116 119.046 14.9678 118.976 14.4857H128.066L128.089 13.4832V13.4909ZM120.494 10.4223C121.018 10.1315 121.657 9.9785 122.427 9.9785C122.928 9.9785 123.382 10.0856 123.798 10.2922C124.214 10.4989 124.553 10.7896 124.815 11.1493C125.077 11.5166 125.239 11.9375 125.285 12.4196V12.5343H119.038C119.107 12.2206 119.192 11.9375 119.315 11.685C119.577 11.134 119.978 10.7131 120.494 10.4147V10.4223Z" fill="#6E6BFB"/>
<path d="M51.8837 27.0965H49.0028V39.585H51.8837V27.0965Z" fill="#6E6BFB"/>
<path d="M63.0684 28.5046C62.8681 28.2826 62.637 28.0684 62.3674 27.8771C61.9284 27.5633 61.4354 27.3108 60.8808 27.1195C60.3261 26.9282 59.7561 26.844 59.163 26.844C58.0692 26.844 57.0909 27.1195 56.2282 27.6705C55.3654 28.2214 54.6799 28.979 54.1792 29.9355C53.6785 30.8997 53.432 31.9863 53.432 33.2107C53.432 34.435 53.6862 35.5446 54.1946 36.5011C54.703 37.4577 55.3886 38.2076 56.2513 38.7585C57.114 39.3095 58.1 39.585 59.1861 39.585C59.7484 39.585 60.2953 39.4932 60.8345 39.3172C61.3738 39.1412 61.8436 38.9039 62.2519 38.6055C62.5985 38.353 62.8835 38.0698 63.1223 37.7714L63.1608 39.3554H65.9493V22.1532H63.0684V28.5122V28.5046ZM62.7295 35.2538C62.4445 35.843 62.0362 36.3098 61.5278 36.6465C61.0117 36.9909 60.4186 37.1592 59.7484 37.1592C59.0783 37.1592 58.4851 36.9909 57.969 36.6465C57.4529 36.3098 57.0524 35.843 56.7674 35.2538C56.4824 34.6646 56.336 33.9836 56.336 33.2107C56.336 32.4378 56.4824 31.7721 56.7674 31.1752C57.0524 30.5783 57.4607 30.1115 57.969 29.7825C58.4851 29.4458 59.0783 29.2851 59.7484 29.2851C60.4186 29.2851 61.0117 29.4534 61.5278 29.7825C62.0439 30.1192 62.4445 30.5783 62.7295 31.1752C63.0145 31.7721 63.1608 32.4531 63.1608 33.2107C63.1608 33.9683 63.0145 34.6646 62.7295 35.2538Z" fill="#6E6BFB"/>
<path d="M77.5116 28.5505C76.9955 28.0148 76.387 27.5939 75.686 27.2802C74.9851 26.9741 74.2302 26.8134 73.4137 26.8134C72.4893 26.8134 71.6497 26.9741 70.8717 27.2879C70.1014 27.6092 69.4389 28.0531 68.8843 28.6346C68.3297 29.2162 67.8983 29.9049 67.5825 30.6931C67.2667 31.4813 67.1126 32.3613 67.1126 33.3178C67.1126 34.5269 67.3899 35.5982 67.9446 36.5394C68.4992 37.4806 69.2695 38.2152 70.2631 38.7585C71.2568 39.3019 72.3969 39.5697 73.691 39.5697C74.2687 39.5697 74.8541 39.4932 75.4472 39.3401C76.0404 39.1871 76.6027 38.9728 77.1419 38.6973C77.6811 38.4295 78.1587 38.1005 78.5823 37.7102L77.1573 35.7359C76.595 36.218 76.0712 36.5471 75.5859 36.7384C75.1006 36.922 74.5691 37.0138 73.9914 37.0138C73.1672 37.0138 72.4431 36.8531 71.8268 36.5394C71.2106 36.2257 70.733 35.7665 70.4018 35.1773C70.1784 34.7794 70.0321 34.3356 69.9627 33.8535H79.0522L79.0753 32.851C79.0907 31.9863 78.9598 31.1828 78.6902 30.4482C78.4129 29.7136 78.02 29.0785 77.5116 28.5428V28.5505ZM71.4879 29.7978C72.0117 29.507 72.6511 29.354 73.4214 29.354C73.922 29.354 74.3765 29.4611 74.7925 29.6677C75.2084 29.8743 75.5474 30.1651 75.8093 30.5247C76.0712 30.8844 76.2329 31.3129 76.2792 31.795V31.9098H70.0321C70.1014 31.5961 70.1861 31.3129 70.3094 31.0604C70.5713 30.5094 70.9718 30.0886 71.4879 29.7901V29.7978Z" fill="#6E6BFB"/>
<path d="M89.0968 28.8336C88.858 28.474 88.573 28.1449 88.2341 27.8618C87.8413 27.5327 87.3945 27.2879 86.8784 27.1042C86.3623 26.9282 85.7923 26.8364 85.1683 26.8364C84.0899 26.8364 83.127 27.1042 82.2643 27.6475C81.4093 28.1908 80.7314 28.9407 80.2307 29.9049C79.73 30.8691 79.4836 31.9557 79.4836 33.1801C79.4836 34.4044 79.73 35.4987 80.2307 36.4552C80.7314 37.4194 81.3939 38.177 82.2181 38.7356C83.0423 39.2942 83.9667 39.5697 84.9835 39.5697C85.5766 39.5697 86.1312 39.4779 86.655 39.2942C87.1788 39.1105 87.6564 38.8657 88.0801 38.5596C88.4729 38.2841 88.7964 37.9627 89.0737 37.6107V39.3401H92.0009V27.0889H89.0968V28.826V28.8336ZM87.5485 36.5547C87.0324 36.8838 86.4393 37.0444 85.7692 37.0444C85.099 37.0444 84.5059 36.8838 84.0052 36.5547C83.4968 36.2257 83.1039 35.7742 82.8266 35.1926C82.5493 34.611 82.403 33.9376 82.403 33.1801C82.403 32.4225 82.5416 31.7797 82.8266 31.2058C83.1039 30.6319 83.5045 30.1804 84.0052 29.859C84.5136 29.53 85.099 29.3693 85.7692 29.3693C86.4393 29.3693 87.0324 29.53 87.5485 29.859C88.0646 30.1881 88.4652 30.6319 88.7502 31.2058C89.0352 31.7797 89.1816 32.4378 89.1816 33.1801C89.1816 33.9223 89.0352 34.611 88.7502 35.1926C88.4652 35.7742 88.0569 36.2257 87.5485 36.5547Z" fill="#6E6BFB"/>
</g>
<defs>
<clipPath id="clip0_26_479">
<rect width="128" height="47" fill="white"/>
</clipPath>
</defs>
</svg>
